<svg id="e2hZuv91PfB1" xmlns="http://www.w3.org/2000/svg" xmlns:xlink="http://www.w3.org/1999/xlink" viewBox="0 0 15 15" shape-rendering="geometricPrecision" text-rendering="geometricPrecision"><path d="M8.34588,13.6273c-.28838.2383-.70765.1126-.85416-.2315l-.70344-1.652c.94759-.3499,1.83483-.8204,2.65568-1.3694c0,0,.2257,1.2692-.05414,1.9979-.18044.4698-.65513.9338-1.04394,1.255ZM3.25141,8.2087l-1.6469-.70055c-.34626-.14729-.47101-.56984-.22874-.85765.32397-.38486.78912-.85256,1.25721-1.03164.72563-.27761,1.98851-.06449,1.98851-.06449-.54924.82043-1.02002,1.70721-1.37008,2.65433ZM12.8903,2.10977c0,0-2.98764-1.279503-6.4038,2.13553C5.1647,5.56643,4.37403,7.02028,3.861,8.29315c-.16899.45245-.05432.94712.27764,1.28494L5.42423,10.857c.33196.3378.82688.4464,1.27955.2775c1.5201-.5793,2.90032-1.47363,4.04992-2.62417c3.4162-3.41444,2.1366-6.40056,2.1366-6.40056ZM8.62311,6.3748c-.47078-.47054-.47078-1.23668,0-1.70722s1.23731-.47054,1.70809,0c.4647.47054.4708,1.23668,0,1.70722s-1.23731.47054-1.70809,0Z" fill="#31d0aa"/><path d="M3.77609,10.3019c-.22638-.2263-.54005-.37341-.8466-.2811-.70243.2114-1.21407.863-1.21407,1.634v1.7062h1.70711c.77139,0,1.42328-.5114,1.63483-1.2134.09232-.3064-.0549-.6199-.28128-.8462l-.99999-.9995Z" fill="#31d0aa"/></svg>
