<svg id="eI4B2gHNTwz1" xmlns="http://www.w3.org/2000/svg" xmlns:xlink="http://www.w3.org/1999/xlink" viewBox="0 0 24 24" shape-rendering="geometricPrecision" text-rendering="geometricPrecision"><path d="M18,19h-12c-.55,0-1-.45-1-1L5,6c0-.55.45-1,1-1h5c.55,0,1-.45,1-1s-.45-1-1-1h-6C3.89,3,3,3.9,3,5v14c0,1.1.9,2,2,2h14c1.1,0,2-.9,2-2v-6c0-.55-.45-1-1-1s-1,.45-1,1v5c0,.55-.45,1-1,1ZM14,4c0,.55.45,1,1,1h2.59L8.46,14.13c-.39.39-.39,1.02,0,1.41s1.02.39,1.41,0L19,6.41L19,9c0,.55.45,1,1,1s1-.45,1-1v-5c0-.55-.45-1-1-1h-5c-.55,0-1,.45-1,1Z" fill="#12a7cb"/></svg>
